<svg width="29" height="24" viewBox="0 0 29 24" fill="none" xmlns="http://www.w3.org/2000/svg">
<path opacity="0.5" d="M29 11.8966C29 11.8153 29 11.723 28.9968 11.6159C28.9935 11.3167 28.9871 10.9806 28.9806 10.6223C28.9547 9.59187 28.9094 8.5651 28.8382 7.59741C28.7411 6.26408 28.5987 5.15235 28.4045 4.31764C28.1995 3.44653 27.7978 2.65207 27.2395 2.01365C26.6812 1.37523 25.9858 0.915221 25.2229 0.679593C24.3069 0.398892 22.5138 0.2253 19.9893 0.11819C18.7885 0.0664819 17.5036 0.0332408 16.2186 0.0147735C15.7688 0.00738666 15.3512 0.00369344 14.9758 0H14.0242C13.6488 0.00369344 13.2313 0.00738666 12.7814 0.0147735C11.4964 0.0332408 10.2115 0.0664819 9.01071 0.11819C6.48616 0.228993 4.68984 0.402585 3.77712 0.679593C3.01393 0.914642 2.31828 1.37446 1.75989 2.01297C1.20149 2.65148 0.79996 3.44625 0.595536 4.31764C0.398103 5.15235 0.258929 6.26408 0.16183 7.59741C0.090625 8.5651 0.0453125 9.59187 0.0194196 10.6223C0.00970977 10.9806 0.00647317 11.3167 0.00323656 11.6159C0.00323656 11.723 0 11.8153 0 11.8966V12.1034C0 12.1847 -4.91402e-08 12.277 0.00323656 12.3841C0.00647317 12.6833 0.0129464 13.0194 0.0194196 13.3777C0.0453125 14.4081 0.090625 15.4349 0.16183 16.4026C0.258929 17.7359 0.401339 18.8476 0.595536 19.6824C1.00982 21.4515 2.22679 22.8476 3.77712 23.3204C4.68984 23.6011 6.48616 23.7747 9.01071 23.8818C10.2115 23.9335 11.4964 23.9668 12.7814 23.9852C13.2313 23.9926 13.6488 23.9963 14.0242 24H14.9758C15.3512 23.9963 15.7688 23.9926 16.2186 23.9852C17.5036 23.9668 18.7885 23.9335 19.9893 23.8818C22.5138 23.771 24.3102 23.5974 25.2229 23.3204C26.7732 22.8476 27.9902 21.4552 28.4045 19.6824C28.6019 18.8476 28.7411 17.7359 28.8382 16.4026C28.9094 15.4349 28.9547 14.4081 28.9806 13.3777C28.9903 13.0194 28.9935 12.6833 28.9968 12.3841C28.9968 12.277 29 12.1847 29 12.1034V11.8966ZM26.6696 12.0886C26.6696 12.1662 26.6696 12.2512 26.6664 12.3509C26.6632 12.639 26.6567 12.9566 26.6502 13.3001C26.6276 14.2825 26.5823 15.265 26.5143 16.1773C26.4269 17.3666 26.3039 18.3416 26.1518 18.9954C25.9511 19.8486 25.3621 20.5245 24.6176 20.7498C23.9379 20.9566 22.2258 21.1228 19.8987 21.2225C18.7205 21.2742 17.4518 21.3075 16.1863 21.3259C15.7429 21.3333 15.3318 21.337 14.9628 21.337H14.0372L12.8137 21.3259C11.5482 21.3075 10.2827 21.2742 9.10134 21.2225C6.77422 21.1191 5.05882 20.9566 4.38237 20.7498C3.63795 20.5208 3.04888 19.8486 2.84821 18.9954C2.69609 18.3416 2.5731 17.3666 2.48571 16.1773C2.41775 15.265 2.37567 14.2825 2.34978 13.3001C2.34007 12.9566 2.33683 12.6353 2.33359 12.3509C2.33359 12.2512 2.33036 12.1625 2.33036 12.0886V11.9114C2.33036 11.8338 2.33036 11.7488 2.33359 11.6491C2.33683 11.361 2.3433 11.0434 2.34978 10.6999C2.37243 9.71745 2.41775 8.73499 2.48571 7.82271C2.5731 6.63342 2.69609 5.65836 2.84821 5.00462C3.04888 4.15143 3.63795 3.47553 4.38237 3.25023C5.06205 3.0434 6.77422 2.87719 9.10134 2.77747C10.2795 2.72576 11.5482 2.69252 12.8137 2.67405C13.2571 2.66667 13.6682 2.66297 14.0372 2.66297H14.9628L16.1863 2.67405C17.4518 2.69252 18.7173 2.72576 19.8987 2.77747C22.2258 2.88089 23.9412 3.0434 24.6176 3.25023C25.3621 3.47922 25.9511 4.15143 26.1518 5.00462C26.3039 5.65836 26.4269 6.63342 26.5143 7.82271C26.5823 8.73499 26.6243 9.71745 26.6502 10.6999C26.6599 11.0434 26.6632 11.3647 26.6664 11.6491C26.6664 11.7488 26.6696 11.8375 26.6696 11.9114V12.0886ZM11.6194 16.9492L19.1283 11.9631L11.6194 7.05078V16.9492Z" fill="white"/>
</svg>
