<svg width="26" height="25" viewBox="0 0 26 25" fill="none" xmlns="http://www.w3.org/2000/svg">
<path d="M24.4947 19.7736L20.6252 15.9036C19.8546 15.136 18.5781 15.1595 17.7805 15.9571L15.8311 17.9065C15.7081 17.8383 15.5805 17.7675 15.4465 17.6923C14.2155 17.0102 12.5305 16.0753 10.7572 14.3008C8.97909 12.5228 8.04295 10.835 7.359 9.60317C7.2864 9.47257 7.21738 9.34691 7.14923 9.22743L8.45765 7.92074L9.10079 7.27674C9.89977 6.47776 9.92191 5.20162 9.15261 4.43196L5.28302 0.561493C4.51422 -0.207306 3.23721 -0.18393 2.43824 0.615047L1.34762 1.71185L1.37767 1.74153C1.01207 2.20805 0.706211 2.74631 0.479133 3.32662C0.26937 3.87898 0.138763 4.40623 0.0790256 4.93423C-0.431776 9.17029 1.50383 13.0415 6.75704 18.2952C14.0185 25.5561 19.8705 25.0077 20.1228 24.9808C20.6731 24.9152 21.1997 24.7837 21.7354 24.5757C22.3108 24.3509 22.8486 24.0459 23.3147 23.6811L23.3385 23.7019L24.4434 22.6201C25.2406 21.8212 25.2636 20.5451 24.4947 19.7736ZM23.5838 21.7598L23.0969 22.2458L22.9029 22.4322C22.5976 22.7274 22.069 23.1421 21.2971 23.444C20.8589 23.6127 20.4269 23.7211 19.9873 23.7734C19.932 23.7787 14.4278 24.2483 7.61563 17.4366C1.82342 11.6446 0.895195 8.30712 1.28429 5.0746C1.33302 4.64617 1.4405 4.21502 1.6123 3.76445C1.9168 2.98811 2.33113 2.45999 2.62413 2.15413L3.29732 1.47426C3.62174 1.14898 4.12771 1.12412 4.4243 1.4207L8.29377 5.29018C8.58987 5.58714 8.56649 6.09311 8.24158 6.41938L5.62833 9.03004L5.86951 9.43596C6.00358 9.66217 6.14532 9.91571 6.2967 10.1912C7.01554 11.4876 7.99904 13.2621 9.89841 15.1598C11.7928 17.0552 13.5648 18.0378 14.8573 18.7548C15.1365 18.9093 15.3916 19.0514 15.6204 19.1877L16.0272 19.4289L18.6387 16.8165C18.9645 16.4921 19.4722 16.4681 19.7687 16.7638L23.6365 20.6324C23.9322 20.9289 23.9087 21.4348 23.5838 21.7598Z" fill="white"/>
</svg>
